<svg xmlns="http://www.w3.org/2000/svg" width="26" height="26.029" viewBox="0 0 26 26.029"><g transform="translate(6419.802 6054.976)"><path d="M-6406.8-6054.976c1.775.031,3.55.042,5.324.1a8.212,8.212,0,0,1,4.6,1.344,6.813,6.813,0,0,1,2.84,4.648,26.094,26.094,0,0,1,.234,4.286c.006,2.25.015,4.5-.019,6.75a12.686,12.686,0,0,1-.526,4.07,6.531,6.531,0,0,1-5.239,4.517,20.706,20.706,0,0,1-3.536.292c-2.591.04-5.184.028-7.775,0a12.564,12.564,0,0,1-4.07-.526,6.673,6.673,0,0,1-4.537-5.236,17.278,17.278,0,0,1-.277-3.539c-.019-2.592-.022-5.185.009-7.776a12.56,12.56,0,0,1,.526-4.069,6.674,6.674,0,0,1,5.236-4.537,18.334,18.334,0,0,1,3.539-.279c1.224-.023,2.449,0,3.674,0Zm10.689,13.021h-.039c0-1.092.029-2.185-.008-3.276a32.237,32.237,0,0,0-.228-3.316,4.374,4.374,0,0,0-3.528-3.774,17.249,17.249,0,0,0-3.6-.271q-3.289-.046-6.58,0a23.763,23.763,0,0,0-3.315.23,4.28,4.28,0,0,0-3.662,3.148,12.043,12.043,0,0,0-.36,3.381c-.034,1.766-.049,3.532-.025,5.3.021,1.6.032,3.21.18,4.8a4.406,4.406,0,0,0,3.625,4.157,17.391,17.391,0,0,0,3.568.264q3.275.048,6.551,0a24.069,24.069,0,0,0,3.315-.228,4.23,4.23,0,0,0,3.686-3.22,8.3,8.3,0,0,0,.289-1.875C-6396.169-6038.405-6396.152-6040.18-6396.114-6041.955Z" fill="#58bce0"/><path d="M-6373.646-6002.014a6.647,6.647,0,0,1-6.671-6.72,6.69,6.69,0,0,1,6.736-6.635,6.713,6.713,0,0,1,6.62,6.757A6.677,6.677,0,0,1-6373.646-6002.014Zm4.336-6.663a4.354,4.354,0,0,0-4.314-4.343,4.354,4.354,0,0,0-4.35,4.308,4.354,4.354,0,0,0,4.329,4.357A4.354,4.354,0,0,0-6369.31-6008.677Z" transform="translate(-33.161 -33.264)" fill="#58bce0"/><path d="M-6302.008-6025.139a1.568,1.568,0,0,1-1.563,1.575,1.6,1.6,0,0,1-1.567-1.586,1.566,1.566,0,0,1,1.567-1.544A1.524,1.524,0,0,1-6302.008-6025.139Z" transform="translate(-96.298 -23.752)" fill="#58bce0"/></g></svg>