<svg xmlns="http://www.w3.org/2000/svg" width="48.474" height="14" viewBox="0 0 48.474 14"><g transform="translate(-899.751 -998.126)" opacity="0.5"><path d="M1809.289,1308.627h0v-.544h0Z" transform="translate(-878.046 -299.225)" fill="#fff"/><ellipse cx="1.455" cy="1.475" rx="1.455" ry="1.475" transform="translate(934.062 998.126)" fill="#fff"/><path d="M903.9,1002.41a1.9,1.9,0,0,1,1.9-1.9v-2.242a4.144,4.144,0,0,0-4.139,4.139v.629h-1.906v2.045h1.906v7.06H903.9v-7.06H906v-2.045h-2.1Z" transform="translate(0 -0.14)" fill="#fff"/><path d="M1914.949,1117.276l-1.16,1.151a3.043,3.043,0,0,1-2.195,1.02,2.951,2.951,0,0,1,0-5.9,2.79,2.79,0,0,1,2.215,1l1.413-1.412a4.775,4.775,0,0,0-3.628-1.67,5.028,5.028,0,0,0-5.021,5.035c0,.169.009.556.025.72l-1.685,1.684a.118.118,0,0,1-.2-.083v-7.228h-2.084v8.226a1.712,1.712,0,0,0,1.023,1.58,1.682,1.682,0,0,0,1.855-.358l1.846-1.846a5.013,5.013,0,0,0,4.242,2.34,5.072,5.072,0,0,0,3.645-1.689l1.139-1.132Z" transform="translate(-968.153 -109.412)" fill="#fff"/><path d="M1119.514,1005.58h-2.084v2.521l-1.623,1.681a4.936,4.936,0,0,0-4.836-4.324,4.468,4.468,0,0,0-2.8,1.026v-4.834h-2.081v6.591l-1.587,1.577a4.9,4.9,0,1,0-4.841,5.711,4.44,4.44,0,0,0,2.8-1v.875h2.082v-2.751l1.564-1.6a5.086,5.086,0,0,0,4.863,4.471,4.866,4.866,0,0,0,3.635-1.672l2.824-2.921v4.47h2.084v-2.6h0v-.543h0V1009.6c0-.036,0-.072,0-.108a1.972,1.972,0,0,1,1.971-1.91h0v-2.042a3.626,3.626,0,0,0-1.976.618Zm-19.855,7.862a2.954,2.954,0,1,1,2.782-2.949A2.842,2.842,0,0,1,1099.659,1013.442Zm13.375-.907-.011.01h0a2.812,2.812,0,0,1-2.053.9,2.954,2.954,0,1,1,2.783-2.949A2.927,2.927,0,0,1,1113.034,1012.535Z" transform="translate(-188.27 -3.402)" fill="#fff"/></g></svg>