<svg xmlns="http://www.w3.org/2000/svg" width="26" height="26" viewBox="0 0 26 26"><path d="M-6208.226-6047.583v11.273a7.342,7.342,0,0,0,7.343,7.343h6.528v-10.052h-3.351v-3.944h0c1.05,0,2.1,0,3.146,0a.223.223,0,0,0,.226-.223c0-1.08-.023-2.161.028-3.239a4.664,4.664,0,0,1,1.731-3.6,4.59,4.59,0,0,1,2.353-.951,18.354,18.354,0,0,1,3.812.074c.121.011.147.066.147.171,0,1.06,0,2.119,0,3.177,0,.158-.071.18-.2.18-.706,0-1.413-.005-2.118.017a2.77,2.77,0,0,0-.771.139,1.239,1.239,0,0,0-.882,1.188c-.044.815-.036,1.632-.045,2.448,0,.2-.053.458.05.575.087.1.362.041.555.041q1.494,0,2.989,0h.279c-.023.222-.043.417-.067.613-.134,1.037-.272,2.073-.4,3.111a.243.243,0,0,1-.244.214c-.961-.006-1.925,0-2.887,0h-.264v10.061h.714a7.326,7.326,0,0,0,7.326-7.326v-11.365a7.309,7.309,0,0,0-7.309-7.309h-11.308A7.384,7.384,0,0,0-6208.226-6047.583Z" transform="translate(6208.226 6054.968)" fill="#58bce0"/></svg>